<svg xmlns="http://www.w3.org/2000/svg" id="Calque_1" data-name="Calque 1" viewBox="0 0 1417.32 601.08"><defs><style>.cls-1{fill:#42804a}.cls-2{fill:#73b848}.cls-3{fill:#c6d432}.cls-4{fill:#fff}</style></defs><path d="M615.28,1184.43c46.24,59.68,69.33,168.57,113.62,195.21-31,5.83-63.13,8.49-94.18,2.69-36.43-6.81-70-25.08-98.91-48.28s-53.49-51.29-76.9-80c-41.7-51.2-65.87-122.92-115.19-161,101.72,38.84,208.12,134.91,265.27,201-41.74-78.27-113.2-135.62-182.73-190.7C427.38,1104.27,550,1100.22,615.28,1184.43Z" class="cls-1" transform="translate(-6.24 -784.49)"/><path d="M834.27,1159.82c51.34,46.38,89.72,140.89,134,157.78-27.06,10.26-55.57,17.84-84.52,17.61-34-.27-67.2-11.33-97-27.61s-56.52-37.63-82.27-59.78c-45.87-39.46-79.25-100.26-129.87-126.65,98,18.63,209.49,88.14,271.71,138.58-50.28-63.87-124-104.08-195.59-142.56C651.85,1117.81,761.83,1094.38,834.27,1159.82Z" class="cls-2" transform="translate(-6.24 -784.49)"/><path d="M985,1125.5c37.84,28.28,69.91,90.1,101.06,98.79-17.75,8.68-36.65,15.64-56.35,17.32-23.1,2-46.4-3.46-67.69-12.64s-40.81-22-59.72-35.44c-33.68-23.92-60.21-63.15-96.3-77.89,67.82,6.47,148,46.68,193.49,77-38.22-40.24-90.88-62.92-142-84.55C858.34,1108.47,931.63,1085.59,985,1125.5Z" class="cls-3" transform="translate(-6.24 -784.49)"/><path d="M514.91,876.38c-32.08,0-58.54,9-76.5,25.92-17.52,16.52-26.77,40.34-26.77,68.86,0,58.62,38.6,93.62,103.27,93.62,31.7,0,57.93-8.76,75.85-25.32,17.69-16.34,27-40,27-68.3C617.8,912.7,578.37,876.38,514.91,876.38Zm0,160.23c-43.88,0-70.08-24.47-70.08-65.45s26.85-66.6,70.08-66.6c43,0,69.69,25.52,69.69,66.6S558.55,1036.61,514.91,1036.61Z" class="cls-4" transform="translate(-6.24 -784.49)"/><path d="M374.66,1026c-2.13-1.64-5.32-.91-11.25.64l-.16,0-1.08.37a141.3,141.3,0,0,1-50,8.77c-25.35,0-44.25-6.3-56.19-18.75-10.24-10.67-15.43-25.86-15.43-45.15,0-42.95,24.61-66.6,69.3-66.6,26,0,40.49,6.4,50.11,10.63l.16.06c4.32,1.51,7.67,2.18,10,.53s2.48-4.49,2.48-7.16c0-11.74-3.16-17.8-11.18-21.58-14.64-7.58-32.76-11.43-53.87-11.43-64.86,0-100.57,34.07-100.57,95.94,0,28.46,7.92,50.88,23.53,66.64,17,17.13,42.64,25.82,76.26,25.82,21.68,0,42.51-3.68,55.78-9.88,12.22-6.11,13.91-14.91,13.91-23.51C376.49,1029.33,376.27,1027.24,374.66,1026Z" class="cls-4" transform="translate(-6.24 -784.49)"/><path d="M148.12,813.05c21.51,0,29.14-11.54,29.14-21.42,0-7.14-4.85-7.14-11-7.14H21.48c-12.39,0-15.24,2.85-15.24,15.25v249.8c0,10.64,3.59,12.54,13.7,12.54H162c8.94,0,12.93-1.65,12.93-11.39v-5.79c0-9.66-3.39-11.38-12.93-11.38H39.43V932h84.36c21.23,0,28.76-11.54,28.76-21.43,0-7.13-4.85-7.13-11-7.13H39.43V813.05Z" class="cls-4" transform="translate(-6.24 -784.49)"/><path d="M1351.79,952.24c-24.47-5.57-45.6-10.37-45.6-26.64,0-14.73,15.52-22.2,46.14-22.2,23.65,0,38.52,3.6,50.49,6.51,6.37,1.46,10.09,2.21,12.45.33,1.75-1.39,2.11-3.66,2.11-6.64,0-10.53-5.51-17.06-17.34-20.57-15.69-4.66-30.19-6.65-48.48-6.65-49.88,0-76.25,17.42-76.25,50.38,0,36,35.47,44.15,66.77,51.34,27.36,6.28,51,11.71,51,32.44,0,19.1-15.3,27.61-49.62,27.61a177.89,177.89,0,0,1-60.27-11.06c-6.87-2.55-10.12-3.35-12.47-1.72-2.17,1.51-2.35,4.56-2.35,7.56,0,8.76,1.83,18.28,15.28,22.45,16.33,6.07,36,9,60.2,9,53.64,0,79.72-17.87,79.72-54.63C1423.56,968.57,1383.76,959.52,1351.79,952.24Z" class="cls-4" transform="translate(-6.24 -784.49)"/><path d="M1233.32,1026c-2.13-1.64-5.32-.91-11.25.64l-.16,0-1.08.37a141.3,141.3,0,0,1-50,8.77c-25.35,0-44.25-6.3-56.19-18.75-10.24-10.67-15.44-25.86-15.44-45.15,0-42.95,24.62-66.6,69.31-66.6,26,0,40.49,6.4,50.11,10.63l.16.06c4.31,1.51,7.67,2.18,10,.53s2.48-4.49,2.48-7.16c0-11.74-3.16-17.8-11.19-21.58-14.43-7.48-33-11.43-53.87-11.43-64.85,0-100.57,34.07-100.57,95.94,0,28.46,7.92,50.88,23.54,66.64,17,17.13,42.64,25.82,76.26,25.82,21.68,0,42.51-3.68,55.77-9.88,12.23-6.11,13.92-14.91,13.92-23.51C1235.15,1029.33,1234.92,1027.24,1233.32,1026Z" class="cls-4" transform="translate(-6.24 -784.49)"/><path d="M993.27,793c-11.48,0-19.49,7.38-19.49,17.94,0,10.4,8.2,18,19.49,18,11.93,0,20.26-7.38,20.26-18C1013.53,800.2,1005.39,793,993.27,793Z" class="cls-4" transform="translate(-6.24 -784.49)"/><path d="M985.55,879.08c-7.91,0-7.91,5.2-7.91,11.77v158.3c0,10.27,2.74,12.93,13.31,12.93h5.79c10.4,0,12.93-2.54,12.93-12.93V902.82C1009.67,886.63,1002,879.08,985.55,879.08Z" class="cls-4" transform="translate(-6.24 -784.49)"/><path d="M904.08,874.84c-24.6,0-41.93,10-52.7,30.47v-2.49c0-16.19-7.79-23.74-24.51-23.74-7.91,0-7.91,5.2-7.91,11.77v158.3c0,10.27,2.74,12.93,13.31,12.93h5.79c10.58,0,13.32-2.66,13.32-12.93V977.76c.55-33.93,10.33-74.36,53.86-74.36,8.51,0,13.82,1.1,22.63,2.94l.49.1.15,0c3,.4,5.19.38,6.72-1,1.74-1.51,1.86-3.92,1.86-7.7C937.09,882.13,926.6,874.84,904.08,874.84Z" class="cls-4" transform="translate(-6.24 -784.49)"/><path d="M774.74,1029.16c-2-1.49-4.64-1-7.18-.18a2.26,2.26,0,0,0-.33.13,58.84,58.84,0,0,1-28.39,6.72c-9.59,0-25.68-4-25.68-30.7V906.87h49.62c8.68,0,11.38-1.52,11.38-11v-5.79c0-9.33-3-11-11.38-11H713.16V838.73c0-6.83,0-11.77-7.91-11.77-11.18,0-24.51,7.2-24.51,41.5v10.62H658.15c-8.4,0-11.39,1.67-11.39,11v5.79c0,9.48,2.71,11,11.39,11h22.59v98.65c0,39.07,17.21,58.88,51.15,58.88,21.22,0,35.44-5,42.26-14.79,2.09-2.92,3.1-7,3.1-12.43C777.25,1034.13,777,1030.79,774.74,1029.16Z" class="cls-4" transform="translate(-6.24 -784.49)"/></svg>